<?xml version="1.0" encoding="UTF-8"?>
<!DOCTYPE svg PUBLIC "-//W3C//DTD SVG 1.1//EN" "http://www.w3.org/Graphics/SVG/1.1/DTD/svg11.dtd">
<!-- Creator: CorelDRAW -->
<svg xmlns="http://www.w3.org/2000/svg" xml:space="preserve" width="205mm" height="205mm" style="shape-rendering:geometricPrecision; text-rendering:geometricPrecision; image-rendering:optimizeQuality; fill-rule:evenodd; clip-rule:evenodd"
viewBox="0 0 205 205"
 xmlns:xlink="http://www.w3.org/1999/xlink">
 <g>
  <path fill="#DD137B" d="M202.5 102.548c0,-14.7116 -2.7885,-28.2693 -8.3976,-40.6409 -5.6091,-12.3721 -13.2692,-23.0451 -23.0129,-31.9875 -9.7433,-8.9423 -20.5448,-15.7692 -32.4039,-20.4485 -11.8587,-4.6476 -23.9101,-6.9871 -36.1856,-6.9871 -12.3399,0 -24.4874,2.3395 -36.4423,7.051 -11.9553,4.6798 -22.7567,11.4745 -32.3721,20.3846 -9.6471,8.8784 -17.2433,19.5515 -22.8202,31.9553 -5.5769,12.4038 -8.3654,25.9615 -8.3654,40.6731 0,14.6475 2.7885,28.1731 8.3654,40.5769 5.5769,12.4038 13.1731,23.0769 22.8524,31.9553 9.6794,8.9101 20.4808,15.7048 32.4039,20.3846 11.923,4.7115 24.0384,7.051 36.3783,7.051 12.2755,0 24.3269,-2.3395 36.1538,-6.9871 11.827,-4.6793 22.628,-11.5062 32.4039,-20.4807 9.7433,-9.0063 17.4356,-19.6794 23.0447,-32.0193 5.6091,-12.3398 8.3976,-25.8332 8.3976,-40.4807zm-9.7759 -1.25c0,10.9293 -2.1472,21.8909 -6.4741,32.8524 -4.3269,10.9616 -10.449,20.7374 -18.4297,29.3591 -7.9808,8.5899 -17.5962,15.4486 -28.814,20.5448 -11.25,5.0961 -23.4294,7.6605 -36.5707,7.6605 -11.0576,0 -22.0192,-2.1476 -32.8846,-6.4423 -10.8332,-4.263 -20.6087,-10.4168 -29.2625,-18.4298 -8.6861,-8.0125 -15.5452,-17.5961 -20.6091,-28.75 -5.064,-11.1538 -7.5962,-23.3972 -7.5962,-36.7947 0,-13.4616 2.5322,-25.7693 7.5962,-36.8591 5.0639,-11.1217 11.987,-20.7049 20.737,-28.75 8.75,-8.0448 18.4616,-14.1664 29.1028,-18.3972 10.6409,-4.2308 21.6025,-6.3462 32.9164,-6.3462 11.2182,0 22.1476,2.1154 32.8207,6.3462 10.6731,4.2308 20.3846,10.3524 29.1346,18.3972 8.75,8.0451 15.6731,17.6605 20.7371,28.8783 5.0643,11.2178 7.5961,23.4294 7.5961,36.7308zm-52.4356 -20.3846l19.0384 -5.1602c0.8654,-3.9105 1.7308,-8.622 2.5962,-14.1346 0.8332,-5.5451 1.25,-9.7759 1.25,-12.6283 0,-2.7563 -0.7053,-7.1154 -2.1476,-13.0769 -3.0129,7.9486 -6.1217,14.3269 -9.3269,19.0706 -3.2371,4.7755 -8.1409,10.7692 -14.6794,18.0447l3.2693 7.8847zm-17.4361 -21.314l9.3591 6.0895c1.827,-2.3077 2.7241,-5.064 2.7241,-8.2693 0,-3.75 -1.4423,-7.8524 -4.3587,-12.3076 -2.8846,-4.4231 -6.6989,-8.2371 -11.3783,-11.4102 -4.6794,-3.1409 -9.4553,-4.9038 -14.263,-5.2884 5.6413,5.2562 9.8077,10.1283 12.5322,14.6475 2.6923,4.5193 4.4871,10.0318 5.3846,16.5385zm-26.7307 -12.1154l-16.7308 17.0832 0 12.3077c5.3206,5.6091 11.7308,10.4486 19.2629,14.4553 -1.122,-2.3399 -2.1153,-5.2245 -2.9489,-8.75 -0.8654,-3.4938 -1.2818,-6.4424 -1.2818,-8.8144 0,-3.9423 1.6664,-5.9294 4.9678,-5.9294 2.0514,0 3.814,0.9294 5.2245,2.7885 1.3779,1.8269 2.0832,4.9038 2.0832,9.1668l13.9745 8.0769 4.4231 16.314c7.4356,-4.3269 11.1538,-8.7178 11.1538,-13.2371 0,-2.3077 -0.5129,-5.2566 -1.5385,-8.8783 -1.0259,-3.5899 -2.2437,-6.6024 -3.622,-9.0385 -5.1923,-5.0321 -11.4101,-8.4615 -18.6539,-10.3524l-16.3139 -15.1923zm33.3975 69.7433l0 0.9616c4.2308,4.6154 6.7308,10 7.5,16.1538l19.3909 12.1798 9.6794 -4.4875 3.8461 -13.4293 -3.1087 -18.6861c-0.2566,-1.6985 -0.6091,-2.9485 -1.122,-3.8139 -0.4808,-0.8332 -1.6025,-1.4745 -3.2693,-1.9231l-1.0255 -16.314 -6.4745 -5.6413c-6.1538,2.2438 -11.4423,5.7053 -15.9615,10.4168 0.3846,1.1217 0.5769,2.1476 0.5769,3.1091 0,2.9808 -1.4101,5.6409 -4.2307,7.9164 -2.8203,2.3077 -5.6409,4.0067 -8.4294,5.1284 1.9871,0.9937 4.8717,1.5063 8.6217,1.5063 1.4423,0 2.7566,-0.4486 3.9745,-1.314 1.2178,-0.8976 2.9167,-2.5 5.0639,-4.8077 2.1798,-2.3077 3.6861,-3.8462 4.5514,-4.5832 1.0577,3.814 1.6025,8.3332 1.6025,13.5895 0,9.0384 -2.1154,13.5259 -6.378,13.5259 -1.5066,0 -4.0066,-1.1539 -7.5,-3.5259 -3.4937,-2.3395 -5.9615,-4.3269 -7.3077,-5.9616zm-22.7884 -2.7884l-10.6091 -6.7626c-0.8332,1.1857 -1.6346,2.6923 -2.4361,4.551 -0.8332,1.827 -1.25,3.3976 -1.25,4.6476 0,2.6923 0.449,4.6476 1.2822,5.8976 0.8332,1.25 1.2822,3.0769 1.2822,5.4486 0,1.8269 -0.4168,3.8139 -1.186,5.9615 -0.7693,2.1794 -1.186,4.1024 -1.186,5.8014 0,1.6024 0.2566,3.3332 0.7692,5.1601l11.5384 9.0063 5.449 9.2951 10.2885 2.4357 10.801 7.7245 7.5 -18.2371 -6.7626 -22.7245c-1.923,-6.3783 -5.7692,-11.5384 -11.5384,-15.4168l5.2563 36.9231 -16.763 -21.5063c-3.9423,-5.0639 -5.9293,-8.8461 -5.9293,-11.3461 0,-2.6923 1.186,-5 3.4937,-6.8591zm-5.6413 49.0066l-12.3077 -8.0769c-1.9871,3.2371 -3.0126,6.8269 -3.0126,10.7049 0,7.0192 3.3332,13.75 9.9679,20.1923l5.3524 -22.8203zm-12.3077 -15.9615l-4.7755 -17.5644c-1.8909,3.6861 -4.3269,6.7308 -7.3399,9.1347 -3.0126,2.436 -5.8332,4.6475 -8.5255,6.6346 -2.6923,2.0192 -4.936,4.936 -6.6668,8.7822 -1.7626,3.8461 -2.7563,9.3269 -3.0126,16.4744 2.2434,-3.2374 4.327,-5.5451 6.25,-6.8912 1.8909,-1.3462 4.327,-2.6602 7.2756,-3.9102 2.9167,-1.25 5.6091,-2.6923 7.9807,-4.2947 2.3717,-1.6346 5.3207,-4.4231 8.814,-8.3654zm-14.0063 -20l11.763 -4.4231c0.673,-2.9489 1.4423,-6.5384 2.2433,-10.8014 -1.7626,0.9937 -4.4549,1.5063 -8.0769,1.5063 -6.5063,0 -9.7755,-5.8972 -9.7755,-17.6601 0,-3.5577 0.1283,-6.314 0.3846,-8.2693l22.0832 10.6091c-4.4549,-5.8014 -9.551,-11.6668 -15.3203,-17.5321 -3.622,-2.8847 -7.8846,-4.4231 -12.7566,-4.6154l-11.2818 11.5706c-1.3144,5.6731 -1.9553,13.1087 -1.9553,22.2434 1.314,2.1153 2.8524,4.1028 4.6476,5.9615 1.7625,1.8269 4.1024,3.686 6.987,5.5451 2.8846,1.8269 6.5707,3.7818 11.0577,5.8654zm-27.6923 -89.2951c4.3269,7.5 8.1091,18.3654 11.3783,32.5643 4.8717,0 8.7818,0.7693 11.7308,2.2434 0,-4.6794 -0.9937,-9.3588 -3.0129,-14.0385 -1.9871,-4.6472 -4.7116,-8.814 -8.1731,-12.5318 -3.4294,-3.686 -7.4039,-6.4423 -11.9231,-8.2374zm-7.1154 1.9552c-5.6409,5.6409 -8.4615,12.1794 -8.4615,19.6154 0,5.8332 1.5063,11.3462 4.5192,16.5385 2.9808,5.1923 6.9871,9.4231 12.0192,12.6601 1.25,-3.814 2.9486,-6.6664 5.0962,-8.6217 2.1794,-1.923 3.9423,-3.1091 5.3206,-3.4615 -5.3206,-3.2053 -9.6475,-7.2437 -13.0129,-12.1794 -3.3332,-4.9038 -5.1923,-9.9038 -5.4808,-14.9682l0 -9.5832zm8.2371 51.1861l-31.8909 -7.1476c2.9807,6.5063 6.9231,11.1538 11.7629,13.9423 4.8717,2.7885 11.5703,4.8077 20.128,6.0577 -0.3525,-2.1154 -0.5448,-4.1986 -0.5448,-6.186 0,-2.1794 0.1923,-4.4231 0.5448,-6.6664zm66.7629 9.7433c0,-1.9231 -0.6731,-3.5577 -2.0192,-4.9039 -1.3462,-1.3461 -2.9168,-2.0192 -4.7437,-2.0192 -1.9231,0 -3.5255,0.6731 -4.8077,2.0192 -1.2818,1.3462 -1.9231,2.9808 -1.9231,4.9039 0,1.9552 0.6413,3.5899 1.9231,4.936 1.2822,1.3462 2.8846,2.0192 4.8077,2.0192 1.8269,0 3.3975,-0.673 4.7437,-2.0192 1.3461,-1.3461 2.0192,-2.9808 2.0192,-4.936z"/>
 </g>
</svg>
