<?xml version="1.0" encoding="UTF-8" standalone="no"?>
<!-- Created with Inkscape (http://www.inkscape.org/) -->
<svg
   xmlns:dc="http://purl.org/dc/elements/1.1/"
   xmlns:cc="http://creativecommons.org/ns#"
   xmlns:rdf="http://www.w3.org/1999/02/22-rdf-syntax-ns#"
   xmlns:svg="http://www.w3.org/2000/svg"
   xmlns="http://www.w3.org/2000/svg"
   xmlns:sodipodi="http://sodipodi.sourceforge.net/DTD/sodipodi-0.dtd"
   xmlns:inkscape="http://www.inkscape.org/namespaces/inkscape"
   version="1.0"
   width="100.00002"
   height="95.960365"
   id="svg2"
   sodipodi:version="0.32"
   inkscape:version="0.46"
   sodipodi:docname="Flag_of_the_New_Sakura_Order_(alternate).svg"
   inkscape:output_extension="org.inkscape.output.svg.inkscape">
  <metadata
     id="metadata14">
    <rdf:RDF>
      <cc:Work
         rdf:about="">
        <dc:format>image/svg+xml</dc:format>
        <dc:type
           rdf:resource="http://purl.org/dc/dcmitype/StillImage" />
      </cc:Work>
    </rdf:RDF>
  </metadata>
  <sodipodi:namedview
     inkscape:window-height="750"
     inkscape:window-width="1280"
     inkscape:pageshadow="2"
     inkscape:pageopacity="0.0"
     guidetolerance="10.0"
     gridtolerance="10.0"
     objecttolerance="10.0"
     borderopacity="1.0"
     bordercolor="#666666"
     pagecolor="#ffffff"
     id="base"
     showgrid="false"
     inkscape:zoom="1"
     inkscape:cx="50.000011"
     inkscape:cy="47.980183"
     inkscape:window-x="-8"
     inkscape:window-y="-8"
     inkscape:current-layer="svg2" />
  <defs
     id="defs5">
    <inkscape:perspective
       sodipodi:type="inkscape:persp3d"
       inkscape:vp_x="0 : 125 : 1"
       inkscape:vp_y="0 : 1000 : 0"
       inkscape:vp_z="450 : 125 : 1"
       inkscape:persp3d-origin="225 : 83.333333 : 1"
       id="perspective16" />
    <inkscape:perspective
       id="perspective2391"
       inkscape:persp3d-origin="372.04724 : 350.78739 : 1"
       inkscape:vp_z="744.09448 : 526.18109 : 1"
       inkscape:vp_y="0 : 1000 : 0"
       inkscape:vp_x="0 : 526.18109 : 1"
       sodipodi:type="inkscape:persp3d" />
    <inkscape:perspective
       id="perspective2407"
       inkscape:persp3d-origin="292.5 : 195 : 1"
       inkscape:vp_z="585 : 292.5 : 1"
       inkscape:vp_y="0 : 1000 : 0"
       inkscape:vp_x="0 : 292.5 : 1"
       sodipodi:type="inkscape:persp3d" />
  </defs>
  <g
     id="g2395"
     transform="translate(-174.99999,-77.019636)">
    <path
       style="font-size:12px;fill:#ff0000;stroke:#000000;stroke-width:0.74611092"
       id="path572"
       d="M 240.85026,105.15153 C 244.81579,93.254893 235.59991,77.697746 232.91913,77.392691 C 228.95359,81.358235 228.95359,81.358235 224.98806,85.323785 C 221.02249,81.358235 221.02249,81.358235 217.05693,77.392691 C 214.88649,78.988041 205.16027,93.254893 209.12583,105.93672 C 199.03687,99.274172 181.39328,102.0031 180.27475,104.45841 C 182.8208,109.4553 182.8208,109.4553 185.36681,114.45217 C 180.36994,116.99824 180.36994,116.99824 175.37305,119.54428 C 176.21962,122.10149 187.06875,135.36906 199.60851,136.86009 C 189.40763,145.73998 187.43309,161.41983 189.42258,163.24231 C 194.96167,162.365 194.96167,162.365 200.50074,161.48769 C 201.37807,167.02679 201.37807,167.02679 202.25538,172.56587 C 204.94903,172.55097 220.54507,164.04907 224.98803,154.30851 C 229.431,168.47889 245.3726,173.73716 247.72068,172.40818 C 248.59799,166.8691 248.59799,166.8691 249.47535,161.33005 C 255.0144,162.20733 255.0144,162.20733 260.48074,162.93003 C 261.22619,160.20895 261.03337,143.58719 252.4187,134.42131 C 266.54473,132.64428 275.14136,121.91636 274.60308,119.27252 C 269.60619,116.72644 269.60619,116.72644 264.60929,114.18042 C 267.15531,109.18351 267.15531,109.18351 269.70139,104.18661 C 267.51339,102.61537 250.93916,97.773925 240.85026,105.22164" />
    <path
       style="font-size:12px;fill:#ffb3b3;stroke:#000000;stroke-width:0.37305561"
       id="path566"
       d="M 238.20855,108.45958 C 241.51317,98.545715 233.83325,85.581429 231.5993,85.327214 C 228.29466,88.631839 228.29466,88.631839 224.99004,91.936461 C 221.6854,88.631839 221.6854,88.631839 218.38079,85.327214 C 216.57207,86.656675 208.4669,98.545715 211.77151,109.11391 C 203.36405,103.56179 188.66107,105.83592 187.72897,107.88199 C 189.85067,112.04605 189.85067,112.04605 191.97236,116.21012 C 187.80829,118.33183 187.80829,118.33183 183.64422,120.45354 C 184.34969,122.58454 193.39062,133.64086 203.84044,134.88338 C 195.33969,142.28328 193.69424,155.3498 195.35217,156.86857 C 199.96806,156.13746 199.96806,156.13746 204.58395,155.40638 C 205.31505,160.02232 205.31505,160.02232 206.04616,164.63821 C 208.29086,164.62578 221.28756,157.54085 224.99004,149.42373 C 228.6925,161.23238 241.97717,165.61426 243.9339,164.50681 C 244.66501,159.89089 244.66501,159.89089 245.39611,155.27501 C 250.012,156.00609 250.012,156.00609 254.56729,156.60832 C 255.18849,154.34076 255.02782,140.4893 247.84895,132.85106 C 259.6206,131.3702 266.78447,122.43027 266.33589,120.22709 C 262.17182,118.10535 262.17182,118.10535 258.00776,115.98364 C 260.12944,111.81956 260.12944,111.81956 262.25115,107.65549 C 260.42783,106.3461 246.61598,102.31158 238.20855,108.518" />
    <path
       style="font-size:12px;fill:#ff0000;fill-rule:evenodd"
       id="path569"
       d="M 247.44502,131.6355 L 226.02326,127.58676 L 224.89079,148.74246 L 223.81679,127.65373 L 204.05529,134.27922 L 223.06852,125.6633 L 211.65741,107.8422 L 224.81251,124.36616 L 238.26967,107.8422 L 226.63866,125.55495 L 247.44502,131.6355 z" />
    <path
       style="font-size:12px;fill:#ff0000;fill-rule:evenodd"
       id="path570"
       d="M 210.43321,122.53706 L 224.27975,125.15408 L 225.01175,111.47949 L 225.70597,125.1108 L 238.47935,120.82822 L 226.18964,126.39738 L 233.56551,137.91651 L 225.06237,127.23579 L 216.36396,137.91651 L 223.88198,126.46739 L 210.43321,122.53706 z" />
    <path
       style="fill:#ffaeae;fill-opacity:1;fill-rule:evenodd;stroke:#ff0000;stroke-width:1.11916637;stroke-linecap:butt;stroke-linejoin:miter;stroke-dasharray:none;stroke-opacity:1"
       id="path567"
       d="M 231.60923,124.99978 C 231.60923,128.64997 228.65016,131.60903 224.99997,131.60903 C 221.34978,131.60903 218.39072,128.64997 218.39072,124.99978 C 218.39072,121.34959 221.34978,118.39053 224.99997,118.39053 C 228.65016,118.39053 231.60923,121.34959 231.60923,124.99978 z" />
    <path
       style="fill:#ff0000;fill-opacity:1;fill-rule:evenodd;stroke:none;stroke-width:1pt;stroke-linecap:butt;stroke-linejoin:miter;stroke-opacity:1"
       id="path571"
       d="M 214.46487,123.07653 C 214.46487,124.18984 213.56235,125.09236 212.44905,125.09236 C 211.33574,125.09236 210.43322,124.18984 210.43322,123.07653 C 210.43322,121.96323 211.33574,121.06071 212.44905,121.06071 C 213.56235,121.06071 214.46487,121.96323 214.46487,123.07653 z" />
    <path
       style="fill:#ff0000;fill-opacity:1;fill-rule:evenodd;stroke:none;stroke-width:1pt;stroke-linecap:butt;stroke-linejoin:miter;stroke-opacity:1"
       id="path573"
       d="M 226.77568,111.6051 C 226.77568,112.71841 225.87316,113.62092 224.75986,113.62092 C 223.64655,113.62092 222.74403,112.71841 222.74403,111.6051 C 222.74403,110.49179 223.64655,109.58928 224.75986,109.58928 C 225.87316,109.58928 226.77568,110.49179 226.77568,111.6051 z" />
    <path
       style="fill:#ff0000;fill-opacity:1;fill-rule:evenodd;stroke:none;stroke-width:1pt;stroke-linecap:butt;stroke-linejoin:miter;stroke-opacity:1"
       id="path575"
       d="M 240.20568,120.55841 C 240.20568,121.67172 239.30316,122.57423 238.18986,122.57423 C 237.07655,122.57423 236.17403,121.67172 236.17403,120.55841 C 236.17403,119.4451 237.07655,118.54259 238.18986,118.54259 C 239.30316,118.54259 240.20568,119.4451 240.20568,120.55841 z" />
    <path
       style="fill:#ff0000;fill-opacity:1;fill-rule:evenodd;stroke:none;stroke-width:1pt;stroke-linecap:butt;stroke-linejoin:miter;stroke-opacity:1"
       id="path576"
       d="M 219.78089,135.66717 C 219.78089,136.78048 218.87837,137.68299 217.76507,137.68299 C 216.65176,137.68299 215.74924,136.78048 215.74924,135.66717 C 215.74924,134.55386 216.65176,133.65135 217.76507,133.65135 C 218.87837,133.65135 219.78089,134.55386 219.78089,135.66717 z" />
    <path
       style="fill:#ff0000;fill-opacity:1;fill-rule:evenodd;stroke:none;stroke-width:1pt;stroke-linecap:butt;stroke-linejoin:miter;stroke-opacity:1"
       id="path577"
       d="M 235.44923,136.78633 C 235.44923,137.89964 234.54671,138.80215 233.43341,138.80215 C 232.3201,138.80215 231.41758,137.89964 231.41758,136.78633 C 231.41758,135.67303 232.3201,134.77051 233.43341,134.77051 C 234.54671,134.77051 235.44923,135.67303 235.44923,136.78633 z" />
  </g>
</svg>
